# xmcd
#
# Track frame offsets:
#	150
#	11667
#	22430
#	33630
#	47314
#	57625
#	69560
#	84482
#	97182
#	112807
#	124455
#
# Disc length: 1816 seconds
#
# Revision: 0
# Processed by: cddbd v1.4PL0 Copyright (c) Steve Scherf et al.
# Submitted via: dBpowerAMP V4.0
#
DISCID=9b07160b
DTITLE=Tommy Hunter - Sings For You
DYEAR=1900
DGENRE=
TTITLE0=Blues Stay Away From Me
TTITLE1=The Prisoner's Song
TTITLE2=Mind Your Own Business
TTITLE3=They'll Never Take Her Love From Me
TTITLE4=Each Minute Seems A Million Years
TTITLE5=No Hard Time Blues
TTITLE6=Blue Side Of Lonesome
TTITLE7=I'll Be Your Baby Tonight
TTITLE8=Many Years Ago
TTITLE9=Makes No Difference Now
TTITLE10=CANADA - No Place Like Home
EXTD=
EXTT0=
EXTT1=
EXTT2=
EXTT3=
EXTT4=
EXTT5=
EXTT6=
EXTT7=
EXTT8=
EXTT9=
EXTT10=
PLAYORDER=
